<svg xmlns="http://www.w3.org/2000/svg" viewBox="0 0 512 512">
  <!-- 焙比 RoastDiff icon: two roast curves on graph paper. Copyright (c) 2026 PEI-HSIN LIN, MIT License -->
  <rect width="512" height="512" rx="96" fill="#efe6d8"/>
  <rect x="30" y="30" width="452" height="452" rx="70" fill="none" stroke="#47423c" stroke-width="5"/>
  <g stroke="#d6c8b3" stroke-width="3"><line x1="96" y1="96" x2="96" y2="416"/><line x1="160" y1="96" x2="160" y2="416"/><line x1="224" y1="96" x2="224" y2="416"/><line x1="288" y1="96" x2="288" y2="416"/><line x1="352" y1="96" x2="352" y2="416"/><line x1="416" y1="96" x2="416" y2="416"/><line x1="96" y1="96" x2="416" y2="96"/><line x1="96" y1="160" x2="416" y2="160"/><line x1="96" y1="224" x2="416" y2="224"/><line x1="96" y1="288" x2="416" y2="288"/><line x1="96" y1="352" x2="416" y2="352"/><line x1="96" y1="416" x2="416" y2="416"/></g>
  <path d="M96 92 V416 H420" fill="none" stroke="#47423c" stroke-width="6" stroke-linecap="round" stroke-linejoin="round"/>
  <path d="M104 392 C 150 268, 240 196, 396 162" fill="none" stroke="#b0623f" stroke-width="12" stroke-linecap="round"/>
  <path d="M104 392 C 176 316, 268 262, 396 238" fill="none" stroke="#47423c" stroke-width="12" stroke-linecap="round"/>
  <circle cx="396" cy="162" r="17" fill="#b0623f"/>
  <circle cx="396" cy="238" r="17" fill="#efe6d8" stroke="#47423c" stroke-width="7"/>
</svg>
